<svg xmlns="http://www.w3.org/2000/svg" version="1.0" width="240.000000" height="32.000000" preserveAspectRatio="xMidYMid meet" style=""><rect id="backgroundrect" width="100%" height="100%" x="0" y="0" fill="none" stroke="none"/>


<g class="currentLayer" style=""><title>Layer 1</title><g transform="translate(0,32) scale(0.10000000149011612,-0.10000000149011612) " fill="#ffffff" stroke="#ffffff" id="svg_1" class="selected" stroke-opacity="1" fill-opacity="1">
<path d="M0 258 c1 -61 1 -62 14 -33 16 35 51 70 86 84 21 8 14 10 -37 10 l-63 1 0 -62z" id="svg_2" stroke="#ffffff" stroke-opacity="1" fill="#ffffff" fill-opacity="1"/>
<path d="M229 304 l35 -15 -114 -114 c-63 -63 -116 -115 -118 -115 -2 0 -9 15 -17 32 l-14 33 -1 -62 0 -63 63 0 62 1 -34 15 -35 15 115 115 c101 101 115 112 126 97 50 -68 11 -193 -72 -229 -25 -11 147 -13 1073 -14 l1102 0 0 160 0 160 -1102 0 c-988 -1 -1099 -2 -1069 -16z m385 -55 c25 -20 35 -49 16 -49 -5 0 -21 12 -35 26 -49 49 -115 8 -115 -73 0 -33 6 -50 25 -68 33 -33 61 -31 96 7 22 22 33 28 41 20 8 -8 2 -19 -20 -41 -42 -43 -101 -44 -143 -2 -25 26 -29 37 -29 86 0 49 4 60 29 86 37 36 94 40 135 8z m106 -94 c0 -96 -3 -115 -15 -115 -12 0 -15 19 -15 115 0 96 3 115 15 115 12 0 15 -19 15 -115z m220 95 c11 -11 20 -28 20 -38 0 -24 -28 -62 -46 -62 -9 0 -2 -16 21 -46 38 -49 43 -64 21 -64 -8 0 -30 22 -50 50 -29 41 -41 50 -66 50 -29 0 -30 -1 -30 -50 0 -43 -3 -50 -20 -50 -19 0 -20 7 -20 108 0 60 3 112 7 115 3 4 37 7 75 7 55 0 72 -4 88 -20z m224 -1 c25 -20 35 -49 16 -49 -5 0 -21 12 -35 26 -49 49 -115 8 -115 -73 0 -33 6 -50 25 -68 33 -33 61 -31 96 7 22 22 33 28 41 20 8 -8 2 -19 -20 -41 -42 -43 -101 -44 -143 -2 -25 26 -29 37 -29 86 0 49 4 60 29 86 37 36 94 40 135 8z m96 -79 l0 -100 60 0 c47 0 60 -3 60 -15 0 -12 -15 -15 -75 -15 l-75 0 0 115 c0 96 3 115 15 115 12 0 15 -18 15 -100z m320 85 c0 -12 -14 -15 -65 -15 l-65 0 0 -35 0 -35 60 0 c47 0 60 -3 60 -15 0 -12 -13 -15 -60 -15 l-60 0 0 -35 0 -34 67 -3 c42 -2 68 -8 71 -15 3 -10 -19 -13 -87 -13 l-91 0 0 108 c0 60 3 112 7 115 3 4 42 7 85 7 63 0 78 -3 78 -15z m294 -6 c25 -20 35 -49 16 -49 -5 0 -21 12 -35 26 -49 49 -115 8 -115 -73 0 -33 6 -50 25 -68 33 -33 61 -31 96 7 22 22 33 28 41 20 8 -8 2 -19 -20 -41 -42 -43 -101 -44 -143 -2 -25 26 -29 37 -29 86 0 49 4 60 29 86 37 36 94 40 135 8z m106 -68 c0 -96 8 -113 55 -114 45 0 54 18 57 111 3 73 6 87 21 90 34 7 17 -188 -19 -215 -23 -17 -95 -17 -118 0 -21 16 -35 74 -36 148 0 58 4 69 27 69 10 0 13 -21 13 -89z m360 74 c0 -11 -11 -15 -40 -15 l-40 0 0 -100 c0 -82 -3 -100 -15 -100 -12 0 -15 18 -15 100 l0 100 -35 0 c-24 0 -35 5 -35 15 0 12 17 15 90 15 73 0 90 -3 90 -15z" id="svg_3" stroke="#ffffff" stroke-opacity="1" fill="#ffffff" fill-opacity="1"/>
<path d="M810 205 l0 -35 50 0 c54 0 76 19 59 52 -7 14 -22 18 -59 18 l-50 0 0 -35z" id="svg_4" stroke="#ffffff" stroke-opacity="1" fill="#ffffff" fill-opacity="1"/>
</g></g></svg>